<?xml version="1.0" standalone="no"?>
<!DOCTYPE svg PUBLIC "-//W3C//DTD SVG 20010904//EN"
 "http://www.w3.org/TR/2001/REC-SVG-20010904/DTD/svg10.dtd">
<svg version="1.0" xmlns="http://www.w3.org/2000/svg"
 width="700.000000pt" height="700.000000pt" viewBox="0 0 700.000000 700.000000"
 preserveAspectRatio="xMidYMid meet">
<metadata>
Created by potrace 1.11, written by Peter Selinger 2001-2013
</metadata>
<g transform="translate(0.000000,700.000000) scale(0.100000,-0.100000)"
fill="#000000" stroke="none">
<path d="M3240 6858 c-41 -72 -89 -157 -106 -187 -18 -31 -81 -141 -141 -245
l-110 -189 -69 -19 c-38 -10 -107 -31 -154 -46 -47 -14 -87 -27 -90 -27 -22
-3 -196 -77 -290 -122 -628 -305 -1120 -832 -1382 -1483 -30 -74 -94 -263
-103 -304 -2 -11 -9 -39 -15 -61 -28 -110 -57 -277 -65 -380 -3 -38 -8 -80
-11 -92 -3 -18 0 -23 18 -24 81 -3 679 -1 682 2 2 2 7 31 11 64 85 791 650
1488 1413 1744 156 52 242 72 411 95 l84 11 1 698 c1 383 -1 697 -4 697 -3 0
-39 -59 -80 -132z"/>
<path d="M3675 6292 c-3 -3 -5 -162 -5 -354 l0 -348 28 -1 c178 -8 452 -79
650 -170 35 -16 65 -29 68 -29 12 0 222 -125 284 -168 278 -196 516 -468 669
-765 113 -221 192 -480 217 -712 3 -33 8 -62 10 -64 6 -6 1373 -5 1379 1 4 4
-215 133 -539 316 -67 38 -201 115 -204 118 -2 1 -14 42 -27 91 -139 532 -426
1004 -840 1380 -85 78 -304 240 -410 305 -347 211 -751 349 -1155 393 -95 11
-120 12 -125 7z"/>
<path d="M3482 5233 c-6 -43 -14 -89 -17 -103 -2 -13 -7 -42 -10 -65 -3 -22
-8 -47 -10 -55 -2 -8 -6 -31 -9 -50 -3 -19 -31 -186 -62 -370 -31 -184 -58
-351 -61 -370 -2 -19 -12 -74 -21 -121 l-17 -87 -420 279 c-231 153 -421 279
-423 279 -4 0 37 -69 51 -85 4 -5 122 -181 260 -390 l253 -380 -36 -1 c-19 0
-66 -6 -105 -13 -38 -6 -81 -14 -95 -16 -255 -43 -735 -124 -805 -136 -33 -6
-71 -12 -85 -14 -14 -3 -60 -10 -102 -17 -43 -6 -78 -14 -78 -17 0 -3 78 -19
173 -35 94 -15 181 -30 192 -32 11 -2 63 -10 115 -19 52 -9 106 -18 120 -20
31 -4 629 -106 650 -110 8 -2 21 -4 28 -4 6 -1 12 -5 12 -11 0 -5 -109 -172
-242 -372 -347 -519 -323 -482 -290 -461 15 10 32 22 37 26 22 18 789 526 791
524 2 -2 8 -37 20 -112 3 -16 14 -79 24 -140 11 -60 21 -123 24 -140 3 -16 17
-100 31 -185 14 -85 28 -166 30 -180 2 -14 11 -65 19 -115 9 -49 18 -108 21
-130 4 -22 8 -47 10 -55 2 -8 6 -28 9 -45 6 -38 19 -118 22 -127 1 -5 2 -19 3
-33 3 -71 22 0 61 233 23 141 44 264 45 273 2 9 6 32 9 50 3 19 8 51 11 73 4
21 8 47 10 58 2 11 14 77 25 146 12 70 23 138 26 152 2 14 7 41 10 60 2 19 9
58 14 85 5 28 12 68 15 89 3 22 7 41 8 43 2 1 191 -123 422 -277 230 -154 420
-278 422 -277 1 2 -123 192 -277 423 l-279 419 32 7 c35 8 48 10 187 33 52 8
106 17 120 20 35 6 317 53 364 61 21 3 46 7 55 9 9 1 133 22 276 45 143 24
264 47 269 51 5 4 0 8 -10 7 -10 0 -102 14 -204 31 -210 36 -209 36 -270 46
-25 4 -54 9 -65 11 -11 2 -47 9 -80 14 -33 5 -69 12 -80 14 -11 2 -42 7 -68
10 -27 4 -59 9 -70 12 -12 2 -35 7 -52 9 -16 3 -66 12 -110 20 -96 17 -134 23
-199 31 -110 14 -129 -30 184 438 154 231 278 421 276 423 -1 2 -191 -123
-422 -276 -230 -154 -420 -279 -421 -277 -1 1 -5 20 -8 42 -4 21 -13 80 -22
129 -8 50 -17 104 -20 120 -4 26 -106 637 -118 703 -2 13 -14 86 -27 163 -12
76 -25 139 -29 139 -3 0 -11 -35 -17 -77z m71 -1587 c108 -45 126 -186 34
-260 -92 -74 -228 -17 -244 102 -15 114 103 203 210 158z"/>
<path d="M10 3326 c0 -2 170 -101 379 -220 l378 -217 13 -57 c39 -175 139
-437 241 -632 50 -95 182 -308 219 -353 6 -7 40 -50 77 -97 106 -134 327 -351
479 -469 177 -138 445 -290 675 -382 115 -46 337 -113 444 -134 110 -22 234
-40 348 -52 51 -5 57 -4 58 13 1 24 1 655 0 670 -1 6 -27 14 -58 18 -80 9
-124 16 -153 22 -14 3 -36 8 -50 10 -216 40 -500 161 -720 307 -433 287 -742
722 -871 1222 -23 90 -27 107 -44 205 -2 8 -6 45 -10 83 l-7 67 -699 0 c-385
0 -699 -2 -699 -4z"/>
<path d="M5586 3273 c-15 -132 -20 -161 -51 -288 -52 -209 -159 -451 -283
-639 -110 -166 -302 -375 -454 -494 -307 -241 -675 -392 -1068 -438 -30 -3
-56 -7 -58 -9 -1 -1 -1 -315 0 -698 l3 -696 130 227 c72 124 144 251 161 282
57 101 136 235 145 246 5 7 26 15 47 19 38 6 252 69 287 84 11 5 63 26 115 47
103 41 285 132 365 182 28 17 63 39 80 48 52 30 207 145 295 219 172 146 305
288 441 468 83 111 105 145 187 285 110 189 197 399 262 627 26 94 34 125 45
185 3 14 7 36 10 50 3 14 8 36 10 50 9 46 24 154 30 228 l6 72 -349 0 -349 0
-7 -57z"/>
</g>
</svg>
